<svg height="1838" width="720" xmlns="http://www.w3.org/2000/svg">
<rect height="1838" fill="#555" width="720"></rect>
<text fill="#7f7" font-family="Courier New" font-size="12" xml:space="preserve">
<tspan x="10" y="26">25 megabytes installed</tspan>
<tspan x="10" y="42"></tspan>
<tspan x="10" y="58">node_modules</tspan>
<tspan x="10" y="74">└─┬ pre-git@3.14.0 </tspan>
<tspan x="10" y="90">  ├── bluebird@3.4.7 </tspan>
<tspan x="10" y="106">  ├─┬ chalk@1.1.3 </tspan>
<tspan x="10" y="122">  │ ├── ansi-styles@2.2.1 </tspan>
<tspan x="10" y="138">  │ ├── escape-string-regexp@1.0.5 </tspan>
<tspan x="10" y="154">  │ ├── has-ansi@2.0.0 </tspan>
<tspan x="10" y="170">  │ ├── strip-ansi@3.0.1 </tspan>
<tspan x="10" y="186">  │ └── supports-color@2.0.0 </tspan>
<tspan x="10" y="202">  ├── check-more-types@2.23.0 </tspan>
<tspan x="10" y="218">  ├─┬ conventional-commit-message@1.1.0 </tspan>
<tspan x="10" y="234">  │ ├── check-more-types@2.3.0 </tspan>
<tspan x="10" y="250">  │ ├── cz-conventional-changelog@1.1.5 </tspan>
<tspan x="10" y="266">  │ ├── lazy-ass@1.3.0 </tspan>
<tspan x="10" y="282">  │ └── word-wrap@1.1.0 </tspan>
<tspan x="10" y="298">  ├─┬ cz-conventional-changelog@1.2.0 </tspan>
<tspan x="10" y="314">  │ ├── conventional-commit-types@2.1.0 </tspan>
<tspan x="10" y="330">  │ ├── lodash.map@4.6.0 </tspan>
<tspan x="10" y="346">  │ ├── longest@1.0.1 </tspan>
<tspan x="10" y="362">  │ ├─┬ pad-right@0.2.2 </tspan>
<tspan x="10" y="378">  │ │ └── repeat-string@1.6.1 </tspan>
<tspan x="10" y="394">  │ └── right-pad@1.0.1 </tspan>
<tspan x="10" y="410">  ├─┬ debug@2.6.0 </tspan>
<tspan x="10" y="426">  │ └── ms@0.7.2 </tspan>
<tspan x="10" y="442">  ├─┬ ggit@1.13.6 </tspan>
<tspan x="10" y="458">  │ ├─┬ chdir-promise@0.4.0 </tspan>
<tspan x="10" y="474">  │ │ ├── q@1.1.2 </tspan>
<tspan x="10" y="490">  │ │ └── spots@0.4.0 </tspan>
<tspan x="10" y="506">  │ ├─┬ cli-table@0.3.1 </tspan>
<tspan x="10" y="522">  │ │ └── colors@1.0.3 </tspan>
<tspan x="10" y="538">  │ ├── colors@1.1.2 </tspan>
<tspan x="10" y="554">  │ ├─┬ commander@2.9.0 </tspan>
<tspan x="10" y="570">  │ │ └── graceful-readlink@1.0.1 </tspan>
<tspan x="10" y="586">  │ ├── d3-helpers@0.3.0 </tspan>
<tspan x="10" y="602">  │ ├─┬ glob@7.1.1 </tspan>
<tspan x="10" y="618">  │ │ ├── fs.realpath@1.0.0 </tspan>
<tspan x="10" y="634">  │ │ ├─┬ inflight@1.0.6 </tspan>
<tspan x="10" y="650">  │ │ │ └── wrappy@1.0.2 </tspan>
<tspan x="10" y="666">  │ │ ├── inherits@2.0.3 </tspan>
<tspan x="10" y="682">  │ │ ├─┬ minimatch@3.0.3 </tspan>
<tspan x="10" y="698">  │ │ │ └─┬ brace-expansion@1.1.7 </tspan>
<tspan x="10" y="714">  │ │ │   ├── balanced-match@0.4.2 </tspan>
<tspan x="10" y="730">  │ │ │   └── concat-map@0.0.1 </tspan>
<tspan x="10" y="746">  │ │ ├── once@1.4.0 </tspan>
<tspan x="10" y="762">  │ │ └── path-is-absolute@1.0.1 </tspan>
<tspan x="10" y="778">  │ ├── lodash@3.10.1 </tspan>
<tspan x="10" y="794">  │ ├── moment@2.17.0 </tspan>
<tspan x="10" y="810">  │ ├─┬ optimist@0.6.1 </tspan>
<tspan x="10" y="826">  │ │ ├── minimist@0.0.10 </tspan>
<tspan x="10" y="842">  │ │ └── wordwrap@0.0.3 </tspan>
<tspan x="10" y="858">  │ ├─┬ q@2.0.3 </tspan>
<tspan x="10" y="874">  │ │ ├── asap@2.0.5 </tspan>
<tspan x="10" y="890">  │ │ ├── pop-iterate@1.0.1 </tspan>
<tspan x="10" y="906">  │ │ └── weak-map@1.0.5 </tspan>
<tspan x="10" y="922">  │ ├── quote@0.4.0 </tspan>
<tspan x="10" y="938">  │ └── ramda@0.9.1 </tspan>
<tspan x="10" y="954">  ├─┬ inquirer@0.12.0 </tspan>
<tspan x="10" y="970">  │ ├── ansi-escapes@1.4.0 </tspan>
<tspan x="10" y="986">  │ ├── ansi-regex@2.1.1 </tspan>
<tspan x="10" y="1002">  │ ├─┬ cli-cursor@1.0.2 </tspan>
<tspan x="10" y="1018">  │ │ └─┬ restore-cursor@1.0.1 </tspan>
<tspan x="10" y="1034">  │ │   ├── exit-hook@1.1.1 </tspan>
<tspan x="10" y="1050">  │ │   └── onetime@1.1.0 </tspan>
<tspan x="10" y="1066">  │ ├── cli-width@2.1.0 </tspan>
<tspan x="10" y="1082">  │ ├─┬ figures@1.7.0 </tspan>
<tspan x="10" y="1098">  │ │ └── object-assign@4.1.1 </tspan>
<tspan x="10" y="1114">  │ ├── lodash@4.17.4 </tspan>
<tspan x="10" y="1130">  │ ├─┬ readline2@1.0.1 </tspan>
<tspan x="10" y="1146">  │ │ ├── code-point-at@1.1.0 </tspan>
<tspan x="10" y="1162">  │ │ ├─┬ is-fullwidth-code-point@1.0.0 </tspan>
<tspan x="10" y="1178">  │ │ │ └── number-is-nan@1.0.1 </tspan>
<tspan x="10" y="1194">  │ │ └── mute-stream@0.0.5 </tspan>
<tspan x="10" y="1210">  │ ├── run-async@0.1.0 </tspan>
<tspan x="10" y="1226">  │ ├── rx-lite@3.1.2 </tspan>
<tspan x="10" y="1242">  │ ├── string-width@1.0.2 </tspan>
<tspan x="10" y="1258">  │ └── through@2.3.8 </tspan>
<tspan x="10" y="1274">  ├── lazy-ass@1.5.0 </tspan>
<tspan x="10" y="1290">  ├── require-relative@0.8.7 </tspan>
<tspan x="10" y="1306">  ├── shelljs@0.6.0 </tspan>
<tspan x="10" y="1322">  ├─┬ simple-commit-message@2.2.1 </tspan>
<tspan x="10" y="1338">  │ ├── check-more-types@2.10.0 </tspan>
<tspan x="10" y="1354">  │ ├─┬ ggit@1.12.0 </tspan>
<tspan x="10" y="1370">  │ │ ├── bluebird@3.4.6 </tspan>
<tspan x="10" y="1386">  │ │ ├─┬ chdir-promise@0.2.1 </tspan>
<tspan x="10" y="1402">  │ │ │ ├── check-more-types@1.1.0 </tspan>
<tspan x="10" y="1418">  │ │ │ ├── check-types@1.4.0 </tspan>
<tspan x="10" y="1434">  │ │ │ ├── lazy-ass@0.5.3 </tspan>
<tspan x="10" y="1450">  │ │ │ ├── q@1.1.2 </tspan>
<tspan x="10" y="1466">  │ │ │ └── spots@0.3.0 </tspan>
<tspan x="10" y="1482">  │ │ ├── check-more-types@2.23.0 </tspan>
<tspan x="10" y="1498">  │ │ └── debug@2.3.3 </tspan>
<tspan x="10" y="1514">  │ ├── hr@0.1.3 </tspan>
<tspan x="10" y="1530">  │ ├─┬ inquirer@0.11.1 </tspan>
<tspan x="10" y="1546">  │ │ └── cli-width@1.1.1 </tspan>
<tspan x="10" y="1562">  │ ├─┬ inquirer-confirm@0.2.2 </tspan>
<tspan x="10" y="1578">  │ │ ├── bluebird@2.9.24 </tspan>
<tspan x="10" y="1594">  │ │ └─┬ inquirer@0.8.2 </tspan>
<tspan x="10" y="1610">  │ │   ├── ansi-regex@1.1.1 </tspan>
<tspan x="10" y="1626">  │ │   ├── cli-width@1.1.1 </tspan>
<tspan x="10" y="1642">  │ │   ├─┬ readline2@0.1.1 </tspan>
<tspan x="10" y="1658">  │ │   │ ├── mute-stream@0.0.4 </tspan>
<tspan x="10" y="1674">  │ │   │ └── strip-ansi@2.0.1 </tspan>
<tspan x="10" y="1690">  │ │   └── rx@2.5.3 </tspan>
<tspan x="10" y="1706">  │ ├── semver@5.1.0 </tspan>
<tspan x="10" y="1722">  │ └── word-wrap@1.1.0 </tspan>
<tspan x="10" y="1738">  ├─┬ validate-commit-msg@2.11.1 </tspan>
<tspan x="10" y="1754">  │ ├─┬ findup@0.1.5 </tspan>
<tspan x="10" y="1770">  │ │ ├── colors@0.6.2 </tspan>
<tspan x="10" y="1786">  │ │ └── commander@2.1.0 </tspan>
<tspan x="10" y="1802">  │ └── semver-regex@1.0.0 </tspan>
<tspan x="10" y="1818">  └── word-wrap@1.2.1</tspan>
</text>
</svg>
